<?xml version="1.0" encoding="utf-8"?>
<!-- Generator: Adobe Illustrator 27.2.0, SVG Export Plug-In . SVG Version: 6.00 Build 0)  -->
<svg version="1.1" id="Layer_1" xmlns="http://www.w3.org/2000/svg" xmlns:xlink="http://www.w3.org/1999/xlink" x="0px" y="0px"
	 viewBox="0 0 1080 1080" style="enable-background:new 0 0 1080 1080;" xml:space="preserve">
<style type="text/css">
	.st0{fill:none;stroke:white;stroke-linejoin:round;stroke-miterlimit:10;}
	.st1{fill:#FFFFFF;}
	.st2{fill-rule:evenodd;clip-rule:evenodd;fill:none;stroke:white;stroke-linejoin:round;stroke-miterlimit:10;}
	.st3{fill-rule:evenodd;clip-rule:evenodd;fill:none;stroke:white;stroke-width:2;stroke-linejoin:round;stroke-miterlimit:10;}
</style>
<rect x="720" y="720" class="st0" width="360" height="360"/>
<rect x="720" y="360" class="st0" width="360" height="360"/>
<rect x="720" class="st0" width="360" height="360"/>
<rect x="360" y="720" class="st0" width="360" height="360"/>
<rect x="360" y="360" class="st0" width="360" height="360"/>
<rect y="720" class="st0" width="360" height="360"/>
<rect y="360" class="st0" width="360" height="360"/>
<rect x="360" class="st0" width="360" height="360"/>
<path class="st1" d="M3559,1200.3"/>
<path class="st2" d="M360,0C84.9,0,0,166.3,0,360h360V0z"/>
<g>
	<path class="st3" d="M0,1080V360C0,166.3,84.9,0,360,0c192,0,286.6,203.5,344.8,328.2c5.2,11.2,10.6,22.1,15.2,31.8l360,720"/>
	<path class="st3" d="M720,1080L360,360v720"/>
</g>
</svg>
